# xmcd CD database file
#
# Track frame offsets:
#	150
#	15941
#	33464
#	42369
#	56243
#	69583
#	83304
#	98532
#	113680
#	123739
#	138242
#	154747
#
# Disc length: 2263 seconds
#
# Revision: 0
# Processed by: cddbd v1.5.2PL0 Copyright (c) Steve Scherf et al.
# Submitted via: CDex 1.51
#
DISCID=9008d50c
DTITLE=Wout Steenhuis and Peter Schilperoort - Double Dutch
DYEAR=1970
DGENRE=Jazz
TTITLE0=Li'l Darling
TTITLE1=Yesterdays
TTITLE2=Three Men In A Boat
TTITLE3=The World Keeps Turning
TTITLE4=Patricia
TTITLE5=Basin St. Blues
TTITLE6=Soul Brothers
TTITLE7=A Whiter Shade Of Pale
TTITLE8=Quena Blues
TTITLE9=Grains Of Sand
TTITLE10=Blues For Soprano
TTITLE11=Double Dutch
EXTD=YEAR: 1970
EXTT0=
EXTT1=
EXTT2=
EXTT3=
EXTT4=
EXTT5=
EXTT6=
EXTT7=
EXTT8=
EXTT9=
EXTT10=
EXTT11=
PLAYORDER=
